<?xml version="1.0" standalone="no"?>
<!DOCTYPE svg PUBLIC "-//W3C//DTD SVG 20010904//EN"
 "http://www.w3.org/TR/2001/REC-SVG-20010904/DTD/svg10.dtd">
<svg version="1.0" xmlns="http://www.w3.org/2000/svg"
 width="128.000000pt" height="128.000000pt" viewBox="0 0 128.000000 128.000000"
 preserveAspectRatio="xMidYMid meet">

<g transform="translate(0.000000,128.000000) scale(0.100000,-0.100000)"
fill="#000000" stroke="none">
<path d="M363 1210 c-11 -5 -36 -30 -54 -57 -45 -67 -70 -93 -89 -93 -26 0
-52 -24 -45 -42 11 -28 59 -32 111 -9 74 33 92 29 116 -26 19 -44 20 -57 12
-168 -15 -214 -13 -243 25 -321 24 -49 54 -88 103 -135 69 -66 79 -89 55 -123
-11 -16 -15 -16 -49 -1 -48 20 -64 19 -87 -4 -18 -18 -18 -18 0 -30 11 -6 19
-20 19 -31 0 -18 7 -20 56 -20 47 0 55 -3 52 -17 -1 -10 1 -24 6 -31 4 -7 3
-19 -4 -27 -16 -20 -10 -19 82 7 l78 23 0 52 0 53 53 0 c28 0 83 7 122 15 38
8 86 15 106 15 24 0 42 7 57 23 25 27 29 57 7 57 -8 0 -15 5 -15 10 0 6 -11 8
-25 4 -46 -11 -78 26 -148 169 -82 169 -167 267 -232 267 -10 0 -32 7 -51 16
-44 21 -66 69 -104 229 -38 163 -42 173 -85 191 -39 16 -42 16 -72 4z m325
-1008 c3 -40 1 -43 -19 -40 -33 5 -45 31 -31 63 19 42 46 29 50 -23z"/>
</g>
</svg>
